<?xml version="1.0" standalone="no"?>
<!DOCTYPE svg PUBLIC "-//W3C//DTD SVG 20010904//EN"
 "http://www.w3.org/TR/2001/REC-SVG-20010904/DTD/svg10.dtd">
<svg version="1.0" xmlns="http://www.w3.org/2000/svg"
 width="400.000000pt" height="400.000000pt" viewBox="0 0 400.000000 400.000000"
 preserveAspectRatio="xMidYMid meet">
<metadata>
Created by potrace 1.14, written by Peter Selinger 2001-2017
</metadata>
<g transform="translate(0.000000,400.000000) scale(0.100000,-0.100000)"
fill="#000000" stroke="none">
<path d="M426 3318 c-31 -36 -20 -66 48 -134 63 -63 76 -89 76 -155 0 -15 6
-32 14 -36 8 -4 22 -39 31 -78 10 -38 29 -86 42 -106 25 -37 28 -62 17 -142
-6 -46 -7 -48 -35 -43 -15 2 -29 0 -31 -6 -2 -5 -16 2 -30 15 -27 25 -84 44
-96 32 -3 -3 0 -10 8 -15 8 -6 10 -10 5 -10 -12 0 -46 36 -40 42 2 2 -4 4 -15
4 -14 0 -16 -3 -8 -13 8 -10 7 -12 -6 -7 -9 3 -16 14 -16 23 0 10 -3 12 -8 5
-14 -20 -43 -24 -59 -8 -13 13 -17 13 -24 2 -7 -11 -12 -11 -30 0 -17 11 -20
11 -13 0 6 -10 5 -10 -7 -2 -8 6 -39 11 -70 10 -54 -1 -55 -1 -35 17 16 14 17
16 3 10 -28 -14 -87 -3 -87 16 0 14 2 14 10 1 5 -8 10 -10 10 -4 0 7 20 9 52
7 l53 -3 -35 13 c-25 10 -31 16 -20 20 8 4 6 5 -6 2 -12 -3 -27 1 -34 10 -7 8
-17 15 -22 15 -6 0 -23 9 -39 21 l-29 20 0 -26 c0 -22 3 -24 19 -16 14 8 22 7
31 -4 7 -8 17 -12 23 -8 5 3 7 1 4 -4 -4 -6 -22 -9 -41 -6 l-35 4 0 -419 -1
-419 22 -12 23 -12 -22 5 c-25 4 -33 -18 -10 -27 9 -4 9 -6 0 -6 -7 -1 -13
-10 -13 -21 0 -20 25 -30 112 -45 36 -6 38 -4 38 20 0 14 4 24 9 21 5 -4 11
-1 13 6 3 9 6 9 11 1 4 -6 0 -18 -8 -26 -22 -23 -19 -40 7 -34 11 3 33 0 47
-7 14 -7 67 -24 116 -36 50 -13 94 -27 100 -32 6 -5 3 -28 -8 -61 -9 -28 -26
-89 -37 -134 -20 -82 -20 -83 -1 -138 19 -55 18 -82 -3 -97 -8 -5 -7 -8 1 -8
6 0 10 -8 9 -17 -2 -13 -14 -19 -39 -21 -19 -2 -41 -10 -47 -18 -11 -12 -6
-14 29 -14 23 0 56 6 74 14 18 7 88 16 155 20 105 6 130 4 184 -13 35 -11 82
-23 105 -26 22 -4 49 -15 58 -25 15 -16 14 -18 -10 -24 -14 -4 -25 -10 -25
-15 0 -16 78 -23 256 -24 l174 0 0 -31 c0 -39 25 -133 40 -151 8 -9 8 -15 0
-20 -5 -3 -8 -16 -5 -28 3 -12 7 -35 9 -51 6 -35 8 -37 49 -52 17 -7 59 -24
92 -38 46 -19 54 -26 35 -27 -14 -1 -28 -1 -32 0 -5 0 -8 -3 -8 -8 0 -5 20 -6
45 -3 48 5 57 -5 29 -32 -14 -15 -13 -16 6 -16 12 0 19 4 16 9 -3 5 1 14 8 20
12 10 19 6 37 -18 13 -17 28 -31 34 -31 5 0 33 -21 60 -46 111 -101 94 -93
202 -105 105 -11 123 -16 123 -33 0 -7 9 -31 21 -55 11 -23 18 -48 16 -54 -9
-23 24 -80 71 -124 27 -26 83 -62 132 -85 47 -21 97 -46 112 -54 14 -7 34 -14
43 -14 15 0 16 -2 4 -17 -13 -15 -12 -15 9 -4 18 10 26 10 38 0 8 -6 17 -10
20 -7 2 3 26 1 52 -4 90 -17 312 -30 290 -17 -5 4 7 10 28 14 65 12 151 66
138 86 -3 5 -1 9 4 9 17 0 8 50 -10 56 -23 7 -23 30 0 43 10 6 12 11 4 11 -7
0 -10 4 -7 10 3 5 2 10 -4 10 -6 0 -8 7 -5 15 9 21 -15 47 -37 40 -10 -3 -31
1 -46 9 -25 14 -26 15 -6 16 12 0 28 7 37 15 8 8 24 15 36 15 12 0 30 5 40 10
13 7 21 7 25 0 3 -5 2 -10 -2 -10 -5 0 -14 -10 -22 -23 -7 -12 -10 -19 -6 -15
5 4 15 2 23 -4 12 -10 13 -8 10 12 -2 16 2 24 9 23 8 -2 10 4 6 15 -6 15 -4
15 15 -2 12 -11 22 -15 22 -11 0 5 7 0 15 -11 12 -16 14 -17 15 -2 0 9 6 19
13 22 6 3 2 3 -10 0 -13 -3 -23 -1 -23 5 0 6 5 11 11 11 5 0 8 4 4 10 -3 5
-12 7 -20 4 -8 -4 -12 -10 -9 -15 3 -5 0 -9 -5 -9 -17 0 -13 21 6 35 15 11 15
13 -5 19 -29 10 -28 24 1 19 12 -2 33 5 47 16 24 19 24 21 8 38 -10 9 -18 12
-18 6 0 -6 5 -13 10 -15 6 -2 1 -11 -10 -20 -21 -19 -23 -16 -21 32 0 14 -2
19 -5 13 -3 -7 -12 -13 -21 -13 -22 0 6 25 37 34 15 5 20 4 13 -1 -9 -6 4 -17
41 -36 29 -15 58 -27 65 -27 7 0 10 -4 6 -9 -7 -12 28 -23 49 -15 11 4 16 1
16 -12 0 -15 2 -16 9 -5 7 11 11 10 20 -5 8 -15 11 -15 12 -4 0 8 7 2 15 -15
13 -27 14 -27 10 -5 l-5 25 16 -23 c16 -23 40 -32 27 -9 -6 9 -3 8 8 -1 9 -8
14 -21 12 -30 -5 -15 -4 -16 8 -1 7 9 20 14 28 11 20 -7 39 -34 33 -48 -5 -13
34 -30 44 -20 4 3 -1 6 -10 6 -19 0 -23 15 -5 26 7 5 8 3 3 -6 -6 -10 -4 -12
9 -7 11 5 15 3 10 -5 -5 -7 -2 -9 8 -6 8 4 15 0 15 -8 0 -7 -4 -11 -9 -8 -4 3
-22 -5 -40 -17 -17 -13 -28 -18 -24 -11 4 8 1 12 -10 12 -10 0 -28 10 -41 22
-13 12 -23 17 -23 12 0 -5 9 -15 20 -22 17 -10 18 -15 8 -31 -13 -21 -4 -55
14 -49 6 2 14 11 17 19 3 12 2 12 -12 1 -13 -11 -15 -11 -13 0 3 25 17 39 29
30 16 -12 57 -22 55 -13 -3 24 4 33 22 28 11 -3 18 -1 14 4 -3 5 0 9 6 9 6 0
8 5 5 10 -3 6 1 10 11 10 13 0 14 -3 5 -14 -9 -10 -7 -17 6 -27 9 -8 14 -9 10
-2 -4 6 -3 14 2 17 5 3 11 -4 15 -17 5 -18 8 -20 16 -7 9 13 10 13 10 0 0 -10
3 -11 8 -4 4 7 15 8 28 3 37 -13 34 -25 -4 -22 l-37 4 30 -14 c17 -8 44 -13
61 -11 21 3 40 -3 55 -16 21 -17 22 -19 6 -20 -10 0 -16 4 -13 8 3 5 -17 8
-44 8 -32 -1 -51 3 -54 11 -3 7 -17 13 -31 13 -19 0 -26 -5 -23 -17 1 -10 -1
-24 -5 -30 -6 -9 -3 -11 7 -7 11 4 14 0 11 -15 -2 -12 1 -21 6 -21 20 0 58 32
53 45 -8 19 64 10 88 -12 20 -18 72 -28 63 -12 -4 5 4 9 17 9 13 0 18 -4 13
-8 -6 -4 -11 -16 -11 -27 0 -11 -5 -19 -10 -18 -6 1 -11 -5 -11 -13 0 -8 3
-12 5 -9 3 3 12 -1 21 -8 14 -11 14 -10 2 6 -11 14 -11 17 0 18 49 4 85 -15
59 -31 -13 -8 -12 -10 3 -10 34 0 16 46 -20 51 -18 3 -20 7 -12 19 8 11 12 12
16 3 5 -13 33 -18 33 -6 0 3 -8 15 -17 26 -14 16 -15 19 -3 15 12 -4 15 4 16
38 0 34 -3 44 -19 48 -12 3 -17 10 -14 20 4 9 -1 17 -11 19 -10 3 -5 5 11 6
15 0 27 6 27 12 0 5 -4 8 -8 5 -12 -7 -38 12 -28 21 5 4 11 3 13 -4 2 -7 11
-9 19 -6 12 5 14 54 13 329 -1 295 -2 324 -17 324 -15 1 -15 2 1 11 16 9 17
36 17 325 0 294 -1 315 -17 313 -32 -3 -56 1 -50 7 4 4 19 7 34 8 l28 1 3 84
c3 78 2 83 -14 70 -13 -10 -18 -11 -21 -2 -3 8 -20 10 -52 6 -28 -3 -56 -1
-67 5 -15 9 0 11 69 12 l87 0 0 175 c0 96 -3 175 -8 175 -4 0 -23 -5 -42 -10
-19 -6 -47 -13 -62 -15 -14 -3 -53 -11 -85 -19 -32 -8 -87 -17 -122 -20 -35
-4 -67 -8 -71 -11 -5 -3 -10 1 -13 7 -3 10 -7 10 -20 -1 -12 -9 -14 -18 -7
-31 12 -22 3 -32 -19 -21 -21 11 -161 1 -161 -11 0 -5 -12 -8 -28 -7 -15 2
-32 0 -38 -4 -7 -4 -42 -9 -78 -11 -74 -5 -164 19 -201 54 -11 10 -38 21 -59
24 -21 3 -45 11 -55 19 -15 14 -85 31 -126 31 -26 0 -45 19 -45 45 0 11 -4 23
-10 26 -5 3 -10 14 -10 23 0 9 -17 36 -38 58 -31 35 -41 40 -59 33 -13 -5 -23
-7 -23 -6 -1 1 -2 34 -3 74 -2 54 -7 76 -21 92 -21 24 -87 45 -96 32 -3 -5
-21 -13 -40 -18 -32 -9 -38 -7 -73 24 -40 36 -67 41 -90 19 -8 -8 -23 -13 -33
-10 -28 6 -66 -32 -73 -73 -3 -20 -13 -38 -21 -40 -11 -4 -12 -2 -2 4 9 7 6
13 -13 23 -14 7 -25 19 -25 26 0 13 -36 8 -58 -9 -10 -8 -11 -4 -2 17 5 15 8
32 4 37 -3 5 4 17 16 27 18 14 20 23 14 60 -4 24 -12 42 -20 42 -7 0 -15 8
-19 19 -8 26 -102 25 -111 -1 -3 -10 -10 -18 -15 -18 -16 0 -11 -80 6 -86 19
-8 20 -24 1 -24 -8 0 -16 -6 -19 -12 -3 -8 -9 -2 -15 14 -15 37 -35 47 -26 13
6 -22 2 -27 -25 -38 -17 -6 -31 -17 -31 -23 0 -15 28 -26 42 -18 6 4 5 -3 -1
-15 -14 -24 -36 -29 -27 -5 5 13 2 15 -14 11 -11 -3 -18 -1 -14 4 12 20 -12 7
-34 -18 -21 -25 -22 -25 -12 -4 10 19 9 22 -1 15 -20 -12 -52 -13 -69 -2 -11
7 -10 8 8 5 12 -3 22 -1 22 4 0 5 -6 9 -14 9 -8 0 -21 3 -29 6 -8 3 -24 -5
-36 -17 -20 -22 -20 -22 -16 -1 3 16 0 19 -12 15 -11 -4 -14 -2 -9 5 9 15 1
15 -24 2 -13 -7 -19 -6 -24 5 -4 11 -13 14 -31 9 -15 -4 -25 -2 -25 4 0 20
-162 43 -322 46 -42 0 -74 5 -71 9 3 5 -12 8 -33 7 -69 -5 -74 -2 -74 30 0 30
10 43 69 93 18 15 42 44 54 66 12 21 30 49 40 63 16 24 14 64 -3 53 -4 -3 -7
3 -6 12 0 10 -7 19 -16 21 -11 2 -18 -3 -18 -13 0 -10 5 -13 12 -9 8 5 9 0 5
-15 -5 -20 -2 -22 16 -18 21 6 21 5 -2 -14 -16 -13 -27 -16 -35 -10 -8 7 -25
2 -52 -14 -48 -30 -54 -30 -54 -5 0 10 -11 29 -24 42 -13 13 -26 35 -30 49
-10 47 -124 106 -127 67 -3 -33 -5 -38 -11 -38 -5 0 -15 0 -23 0 -9 0 -19 9
-23 20 -8 21 -8 21 -45 -5 -21 -14 -39 -25 -41 -25 -2 0 -13 21 -25 48 -22 48
-31 64 -65 115 -16 24 -17 31 -5 39 11 7 11 11 2 15 -7 2 -13 21 -14 41 -2 78
-35 126 -41 60 l-3 -33 -33 50 c-36 54 -60 63 -86 33z m435 -361 c-10 -9 -11
-8 -5 6 3 10 9 15 12 12 3 -3 0 -11 -7 -18z m-11 -231 c0 -2 -7 -7 -16 -10 -8
-3 -12 -2 -9 4 6 10 25 14 25 6z m33 -39 c-4 -6 0 -8 10 -4 11 4 14 2 11 -7
-7 -18 12 -30 22 -15 5 8 3 9 -6 4 -9 -5 -11 -4 -6 4 4 6 12 9 17 5 5 -3 7
-10 4 -15 -4 -5 0 -9 7 -9 7 0 5 -5 -6 -11 -15 -9 -22 -6 -42 17 -27 35 -40
72 -18 53 7 -6 11 -16 7 -22z m-813 13 c0 -5 -5 -10 -11 -10 -5 0 -7 5 -4 10
3 6 8 10 11 10 2 0 4 -4 4 -10z m60 -30 c0 -5 -2 -10 -4 -10 -3 0 -8 5 -11 10
-3 6 -1 10 4 10 6 0 11 -4 11 -10z m250 -14 c0 -2 -7 -9 -15 -16 -13 -11 -14
-10 -9 4 5 14 24 23 24 12z m144 -15 c4 -5 -3 -7 -14 -4 -23 6 -26 13 -6 13 8
0 17 -4 20 -9z m331 -11 c13 -5 14 -9 5 -9 -8 0 -24 4 -35 9 -13 5 -14 9 -5 9
8 0 24 -4 35 -9z m1141 -48 c-14 -13 -23 15 -13 38 l11 25 4 -28 c2 -16 1 -31
-2 -35z m-1085 21 c13 -17 13 -17 -6 -3 -11 8 -22 16 -24 17 -2 2 0 3 6 3 6 0
17 -8 24 -17z m1124 -3 c3 -5 1 -10 -4 -10 -6 0 -11 5 -11 10 0 6 2 10 4 10 3
0 8 -4 11 -10z m313 -66 c4 -28 -24 -49 -64 -49 -25 0 -34 5 -38 20 -3 11 1
25 9 31 8 6 13 13 10 15 -2 3 15 5 38 4 35 0 43 -4 45 -21z m190 -16 c18 -18
15 -30 -13 -60 -22 -24 -29 -26 -44 -16 -15 9 -23 9 -34 0 -11 -10 -17 -9 -28
5 -11 13 -11 17 -1 20 6 3 12 11 12 19 0 16 46 43 76 44 11 0 25 -5 32 -12z
m-559 -42 c-7 -7 -79 -25 -79 -20 0 7 43 23 64 23 11 1 17 -1 15 -3z m-165
-25 c3 -5 -1 -12 -10 -15 -20 -8 -29 -1 -19 13 8 13 22 14 29 2z m-503 -67
l24 -26 -22 6 c-18 6 -23 3 -23 -10 0 -13 -3 -14 -13 -5 -8 6 -17 7 -21 3 -4
-4 0 8 11 25 10 18 18 33 19 33 0 0 11 -12 25 -26z m-98 -18 c28 -7 38 -36 12
-36 -9 0 -18 -7 -22 -16 -5 -13 -9 -12 -28 6 -18 17 -23 38 -16 69 1 2 7 -1
14 -6 6 -6 24 -13 40 -17z m1187 20 c0 -3 -4 -8 -10 -11 -5 -3 -10 -1 -10 4 0
6 5 11 10 11 6 0 10 -2 10 -4z m-300 -16 c18 -12 2 -12 -25 0 -13 6 -15 9 -5
9 8 0 22 -4 30 -9z m396 -5 c-8 -8 -20 -15 -26 -15 -7 0 -10 -6 -7 -14 3 -8
-1 -20 -9 -26 -8 -7 -14 -19 -14 -27 0 -13 -3 -13 -15 -3 -8 7 -13 24 -11 41
2 16 -1 26 -5 23 -5 -3 -9 -1 -9 3 0 10 54 30 88 32 21 1 22 -1 8 -14z m-1361
-35 c3 -6 -1 -7 -9 -4 -18 7 -21 14 -7 14 6 0 13 -4 16 -10z m167 -27 c10 -9
18 -25 18 -36 0 -21 -15 -15 -15 6 -1 7 -6 11 -13 10 -7 -2 -18 -4 -24 -5 -7
-2 -14 7 -16 20 -4 27 22 30 50 5z m978 -28 c0 -11 -7 -14 -26 -11 -15 3 -29
8 -33 12 -3 4 6 4 22 2 15 -3 27 -1 27 3 0 5 2 9 5 9 3 0 5 -7 5 -15z m415
-66 c-6 -9 -11 -7 -22 6 -7 11 -13 26 -13 34 0 12 5 11 21 -6 13 -13 18 -26
14 -34z m-1039 30 c32 -6 64 -15 69 -21 7 -7 7 -9 -1 -5 -5 3 -34 7 -62 8 -29
2 -52 7 -52 12 0 5 -24 7 -55 5 -30 -3 -55 -1 -55 4 0 11 85 10 156 -3z m-759
-19 c7 -11 27 -27 44 -35 l30 -16 -4 29 c-4 25 -2 29 13 25 23 -6 34 -33 20
-47 -15 -15 -180 -19 -180 -4 0 6 11 21 24 33 14 13 22 26 19 29 -4 3 0 6 8 6
8 0 20 -9 26 -20z m577 -15 c-9 -14 -18 -25 -20 -25 -2 0 2 11 8 25 6 14 15
25 20 25 5 0 1 -11 -8 -25z m-241 8 c10 -10 -24 -44 -36 -36 -6 4 -8 0 -5 -9
4 -9 0 -15 -8 -15 -17 0 -17 7 -4 41 9 25 38 35 53 19z m895 -50 c-1 -32 2
-75 6 -95 10 -44 1 -81 -14 -58 -13 20 -13 210 0 210 5 0 8 -26 8 -57z m409
37 c10 -11 23 -20 30 -20 20 0 6 -62 -18 -82 -11 -9 -27 -14 -35 -11 -8 3 -14
2 -12 -3 3 -10 -5 -14 -24 -14 -9 0 -8 4 2 10 10 6 11 10 3 10 -7 0 -12 3 -12
8 3 19 -2 33 -10 28 -5 -4 -7 4 -3 16 4 16 2 19 -8 13 -9 -5 -11 -4 -6 3 4 7
15 12 25 12 22 0 45 25 36 40 -11 18 15 11 32 -10z m-965 -13 c-28 -29 -28
-32 4 -34 39 -2 51 -19 30 -42 -21 -24 -65 -36 -79 -22 -13 13 7 83 29 106 25
24 40 17 16 -8z m-422 -8 c0 -5 -4 -9 -8 -9 -5 0 -9 7 -9 15 0 8 4 12 9 9 4
-3 8 -9 8 -15z m-93 -74 c2 -54 0 -65 -13 -65 -11 0 -14 5 -10 16 3 9 6 38 6
65 0 73 15 59 17 -16z m233 30 c0 -8 -2 -15 -4 -15 -2 0 -6 7 -10 15 -3 8 -1
15 4 15 6 0 10 -7 10 -15z m-270 -15 c-20 -13 -50 -13 -50 0 0 6 15 10 33 10
24 0 28 -3 17 -10z m2585 -18 c0 -18 -20 -15 -23 4 -3 10 1 15 10 12 7 -3 13
-10 13 -16z m-2347 -15 c2 -9 -2 -17 -8 -17 -6 0 -8 4 -5 10 3 6 -1 7 -9 4
-11 -4 -16 0 -16 11 0 22 34 16 38 -8z m1199 -14 c-3 -3 -11 -2 -17 2 -9 6 -9
10 1 16 14 8 27 -7 16 -18z m1103 -18 c0 -8 -6 -15 -13 -15 -8 0 -14 7 -14 15
0 8 6 15 14 15 7 0 13 -7 13 -15z m-2500 -76 c0 -36 3 -48 12 -43 7 5 9 2 6
-8 -4 -8 -2 -21 2 -29 6 -8 5 -16 -2 -20 -6 -4 -8 -12 -4 -18 10 -16 14 -351
5 -351 -5 0 -10 5 -10 10 -3 19 -5 25 -22 61 -14 28 -15 42 -7 63 13 34 14 77
1 57 -5 -8 -11 -9 -15 -3 -3 6 -1 12 5 14 7 2 11 57 12 161 1 86 5 157 10 157
4 0 7 -23 7 -51z m2427 29 c-3 -8 -6 -5 -6 6 -1 11 2 17 5 13 3 -3 4 -12 1
-19z m-1788 -4 c2 -2 2 -6 0 -9 -8 -7 -49 7 -49 17 0 8 38 2 49 -8z m951 6 c0
-5 -4 -10 -10 -10 -5 0 -10 5 -10 10 0 6 5 10 10 10 6 0 10 -4 10 -10z m-2603
-46 c-3 -3 -12 -4 -19 -1 -8 3 -5 6 6 6 11 1 17 -2 13 -5z m2098 -35 c9 -26
-4 -219 -14 -219 -4 0 -9 54 -10 120 -1 75 2 120 8 120 5 0 13 -9 16 -21z
m-2080 1 c-4 -6 6 -7 27 -4 32 6 32 6 13 -9 -23 -19 -41 -21 -50 -7 -6 10 1
30 11 30 3 0 2 -4 -1 -10z m65 -30 c0 -5 -4 -10 -9 -10 -6 0 -13 5 -16 10 -3
6 1 10 9 10 9 0 16 -4 16 -10z m128 -45 c-3 -3 -9 2 -12 12 -6 14 -5 15 5 6 7
-7 10 -15 7 -18z m60 -13 c2 -12 -1 -22 -7 -22 -16 0 -22 18 -9 23 10 4 9 8
-2 17 -13 10 -13 11 0 7 8 -2 16 -13 18 -25z m152 17 c0 -5 4 -7 10 -4 5 3 7
0 4 -8 -3 -8 -1 -18 4 -21 12 -7 3 -53 -13 -66 -11 -9 -18 -4 -31 22 -28 55
-33 59 -55 37 -23 -23 -41 -25 -33 -4 4 8 10 12 15 9 5 -3 12 2 15 11 4 9 12
14 18 12 7 -3 20 1 31 9 23 17 35 18 35 3z m3325 -9 c2 -4 -13 -6 -33 -4 -61
3 -68 6 -37 13 32 7 62 3 70 -9z m-2539 -10 c21 -8 30 -8 37 2 6 10 7 9 4 -4
-4 -10 3 -22 19 -33 44 -29 18 -28 -31 1 -30 17 -70 30 -109 34 l-61 7 57 2
c31 0 69 -4 84 -9z m-832 -67 c5 -12 4 -13 -7 -5 -8 7 -16 10 -19 7 -2 -3 -5
1 -5 9 0 18 24 10 31 -11z m2074 -73 l0 -45 -9 40 c-4 22 -8 56 -7 75 l0 35 8
-30 c4 -16 8 -50 8 -75z m-1699 23 c15 -15 34 -40 43 -55 15 -22 15 -27 3 -32
-8 -3 -12 -12 -9 -21 4 -9 1 -15 -9 -15 -16 0 -30 27 -21 41 3 5 13 9 22 9 13
0 13 3 4 12 -10 10 -15 10 -21 -1 -12 -18 -23 2 -14 25 5 14 2 13 -15 -4 -12
-12 -22 -26 -22 -31 0 -5 -7 -11 -15 -15 -11 -4 -15 2 -15 22 l-1 27 -18 -22
c-11 -13 -22 -23 -26 -23 -7 0 3 108 11 121 9 15 78 -11 103 -38z m461 37 c17
-9 40 -59 40 -84 -1 -6 -9 0 -20 13 l-20 23 6 -33 c3 -19 11 -54 19 -79 7 -25
16 -60 20 -79 5 -22 10 -29 15 -21 6 9 11 7 19 -9 10 -19 9 -22 -14 -31 -15
-6 -30 -10 -34 -10 -5 0 -19 -9 -33 -19 l-25 -20 -12 51 c-10 35 -16 46 -22
37 -6 -9 -6 -1 -2 20 4 23 3 32 -5 28 -6 -5 -8 1 -4 15 3 14 2 19 -6 14 -15
-9 -15 -1 -1 26 9 16 8 19 -1 13 -10 -6 -12 -1 -8 19 6 29 -1 33 -22 14 -12
-11 -12 -10 -1 4 10 13 11 25 2 48 -9 26 -7 34 9 50 21 21 70 26 100 10z
m-599 -16 c11 -14 10 -15 -11 -12 -13 1 -25 9 -28 16 -5 17 23 15 39 -4z
m1933 8 c3 -5 -1 -9 -9 -9 -8 0 -12 4 -9 9 3 4 7 8 9 8 2 0 6 -4 9 -8z m1353
2 c-3 -3 -12 -4 -19 -1 -8 3 -5 6 6 6 11 1 17 -2 13 -5z m28 -14 c3 -5 1 -10
-4 -10 -6 0 -11 5 -11 10 0 6 2 10 4 10 3 0 8 -4 11 -10z m-2630 -20 c3 -6 -1
-7 -9 -4 -18 7 -21 14 -7 14 6 0 13 -4 16 -10z m2627 -17 c4 -13 -2 -18 -19
-19 -19 -2 -21 1 -13 11 8 10 7 14 -7 18 -12 3 -10 5 8 6 18 1 28 -5 31 -16z
m-2462 -19 c0 -14 -4 -23 -10 -19 -5 3 -10 15 -10 26 0 10 5 19 10 19 6 0 10
-12 10 -26z m1755 17 c44 -9 44 -12 3 -15 -16 -1 -28 2 -28 6 0 4 -19 9 -42
11 -38 3 -39 4 -8 5 19 0 53 -3 75 -7z m125 -11 c0 -13 -20 -13 -40 0 -12 8
-9 10 13 10 15 0 27 -4 27 -10z m35 0 c-3 -5 -1 -10 6 -10 7 0 10 -2 7 -5 -7
-8 -38 5 -38 16 0 5 7 9 16 9 8 0 12 -4 9 -10z m85 -10 c0 -12 -17 -12 -45 0
-17 7 -15 9 13 9 17 1 32 -3 32 -9z m298 2 c56 -19 -60 -25 -280 -12 -5 0 -8
5 -8 10 0 10 259 12 288 2z m112 -2 c0 -5 -6 -7 -14 -4 -8 3 -17 1 -21 -5 -8
-13 -55 -15 -55 -2 0 5 10 12 23 14 41 8 67 7 67 -3z m-2924 -13 c21 8 17 -9
-11 -47 -26 -35 -55 -48 -55 -24 0 8 5 14 11 14 6 0 8 8 4 19 -4 15 -1 18 21
15 20 -2 24 0 15 9 -6 6 -11 16 -10 22 0 5 3 5 5 -2 3 -7 12 -9 20 -6z m1835
-21 c5 3 9 -2 9 -11 0 -10 5 -13 12 -9 6 4 8 3 5 -3 -11 -18 -45 -21 -64 -6
-17 13 -16 13 5 3 15 -7 22 -7 22 0 0 5 -4 10 -10 10 -5 0 -6 8 -3 17 4 11 8
13 11 5 2 -7 8 -10 13 -6z m-92 -7 c11 7 21 10 22 9 7 -26 4 -39 -9 -50 -15
-11 -15 -11 -4 3 10 14 10 18 -3 22 -8 4 -14 3 -12 -1 2 -7 -6 -12 -21 -12 -4
0 -9 10 -9 22 -2 16 0 19 6 9 7 -10 13 -11 30 -2z m-134 -24 c23 -13 44 -22
47 -20 3 3 5 -2 5 -10 0 -9 -4 -11 -11 -6 -6 5 -31 21 -56 35 -25 14 -41 26
-36 26 5 0 28 -11 51 -25z m80 4 c0 -8 4 -20 8 -26 12 -20 -4 -15 -19 5 -17
22 -18 45 -1 39 6 -2 12 -10 12 -18z m-2120 -235 c17 -26 10 -54 -14 -54 -12
0 -11 -5 8 -19 21 -16 21 -19 6 -24 -9 -4 -44 -7 -78 -7 l-60 0 20 23 c19 20
20 25 7 67 -14 49 -7 67 29 72 17 2 24 15 36 73 l16 70 7 -89 c5 -50 14 -99
23 -112z m899 171 c-4 -8 -8 -15 -10 -15 -2 0 -4 7 -4 15 0 8 4 15 10 15 5 0
7 -7 4 -15z m-114 1 c0 -11 -19 -15 -25 -6 -3 5 1 10 9 10 9 0 16 -2 16 -4z
m-302 -36 c-3 -17 -1 -33 4 -36 5 -3 4 -12 -3 -20 -10 -12 -9 -13 5 -8 9 3 16
1 16 -5 0 -18 -29 -25 -45 -11 -20 16 -20 60 0 60 9 0 15 9 15 25 0 14 3 25 6
25 4 0 4 -14 2 -30z m1672 26 c0 -3 -4 -8 -10 -11 -5 -3 -10 -1 -10 4 0 6 5
11 10 11 6 0 10 -2 10 -4z m70 -16 c3 -1 -6 -5 -20 -9 -27 -8 -53 -3 -46 8 4
6 51 6 66 1z m-2173 -47 c-3 -3 -11 -2 -17 2 -9 6 -9 10 1 16 14 8 27 -7 16
-18z m404 -54 c17 -10 5 -23 -16 -16 -10 5 -15 19 -14 49 l1 43 8 -34 c4 -18
14 -37 21 -42z m198 1 c0 -8 -5 -4 -13 10 -7 14 -10 29 -8 34 6 11 20 -20 21
-44z m408 18 c-3 -8 -6 -5 -6 6 -1 11 2 17 5 13 3 -3 4 -12 1 -19z m-811 -22
c26 -27 17 -46 -21 -46 l-36 0 16 30 c18 34 21 35 41 16z m359 4 c-3 -5 -12
-10 -18 -10 -7 0 -6 4 3 10 19 12 23 12 15 0z m148 -27 c-6 -2 3 -18 20 -36
29 -31 29 -32 8 -35 -12 -2 -33 4 -47 13 -20 13 -23 19 -13 31 9 11 9 14 -2
14 -10 1 -8 5 5 15 10 8 24 11 29 8 8 -5 8 -8 0 -10z m-288 -13 c3 -5 0 -7 -8
-4 -8 3 -18 1 -22 -5 -3 -6 -11 -11 -17 -11 -7 0 -6 6 2 15 14 17 36 20 45 5z
m2455 -60 c0 -5 -2 -10 -4 -10 -3 0 -8 5 -11 10 -3 6 -1 10 4 10 6 0 11 -4 11
-10z m-2514 -32 c4 4 3 0 -4 -10 -10 -13 -10 -17 0 -22 7 -3 2 -3 -12 0 -32 8
-34 10 -26 30 5 12 9 14 20 5 7 -6 17 -7 22 -3z m1025 -75 c-10 -17 -10 -17
-11 2 0 11 4 31 8 45 l7 25 3 -27 c2 -15 -1 -35 -7 -45z m-582 47 c19 -10 48
-67 39 -76 -13 -12 -55 10 -76 40 -12 18 -22 35 -22 39 0 10 39 8 59 -3z m955
-38 c7 -15 16 -43 20 -62 5 -29 3 -26 -13 15 -11 28 -25 58 -31 69 -8 12 -8
16 -1 11 6 -3 17 -18 25 -33z m1393 16 c-3 -8 -6 -5 -6 6 -1 11 2 17 5 13 3
-3 4 -12 1 -19z m-1684 -8 c3 -11 0 -20 -6 -21 -7 0 -2 -5 11 -11 29 -15 28
-28 -3 -28 -14 0 -25 1 -25 3 -11 71 -11 77 3 77 8 0 17 -9 20 -20z m1492 -10
c-10 -11 -21 -18 -23 -15 -3 3 3 12 14 20 27 20 30 18 9 -5z m53 -55 c-3 -3
-9 2 -12 12 -6 14 -5 15 5 6 7 -7 10 -15 7 -18z m-101 0 c0 -8 -4 -12 -9 -9
-5 3 -6 10 -3 15 9 13 12 11 12 -6z m283 11 c0 -3 -4 -8 -10 -11 -5 -3 -10 -1
-10 4 0 6 5 11 10 11 6 0 10 -2 10 -4z m-2317 -56 c7 -8 2 -7 -10 3 -14 12
-19 25 -15 35 5 15 7 14 10 -3 2 -11 9 -27 15 -35z m2237 6 c0 -3 -4 -8 -10
-11 -5 -3 -10 -1 -10 4 0 6 5 11 10 11 6 0 10 -2 10 -4z m-2171 -22 c2 -2 1
-10 -2 -18 -8 -21 -47 -8 -47 16 0 15 4 18 23 12 12 -3 24 -8 26 -10z m848
-16 c-3 -7 -5 -2 -5 12 0 14 2 19 5 13 2 -7 2 -19 0 -25z m-497 15 c0 -13
-123 -72 -163 -79 -27 -5 -44 -1 -65 12 -15 10 -30 17 -34 16 -5 -1 -8 3 -8 9
0 6 8 9 18 6 96 -32 93 -32 167 6 73 38 85 42 85 30z m448 -18 c-3 -3 -9 2
-12 12 -6 14 -5 15 5 6 7 -7 10 -15 7 -18z m1129 -7 c-3 -8 -6 -5 -6 6 -1 11
2 17 5 13 3 -3 4 -12 1 -19z m-1568 -17 c-37 -28 -70 -43 -77 -35 -4 4 -2 9 3
11 6 2 26 12 45 22 46 25 59 26 29 2z m618 -18 c-3 -10 -5 -4 -5 12 0 17 2 24
5 18 2 -7 2 -21 0 -30z m-861 -30 c-2 -3 -12 0 -23 5 -10 5 -30 15 -45 23 -16
7 -28 16 -28 21 0 5 23 -3 50 -18 28 -15 48 -29 46 -31z m-111 27 c3 -5 1 -10
-4 -10 -6 0 -11 5 -11 10 0 6 2 10 4 10 3 0 8 -4 11 -10z m924 -63 c1 -5 -6
-1 -15 7 -8 9 -12 21 -8 28 5 8 10 6 15 -8 4 -10 8 -23 8 -27z m961 39 c0 -3
-4 -8 -10 -11 -5 -3 -10 -1 -10 4 0 6 5 11 10 11 6 0 10 -2 10 -4z m-569 -23
c13 -16 12 -17 -3 -4 -10 7 -18 15 -18 17 0 8 8 3 21 -13z m612 0 c-3 -7 -13
-13 -23 -13 -10 0 -21 -6 -23 -12 -4 -10 -6 -10 -6 0 -1 8 8 16 19 19 11 3 18
9 15 12 -2 4 2 8 9 8 8 0 12 -6 9 -14z m450 -9 c-4 -12 -8 -13 -14 -3 -9 15
-2 32 11 24 5 -3 6 -13 3 -21z m-39 8 c3 -5 -1 -9 -9 -9 -8 0 -15 4 -15 9 0 4
4 8 9 8 6 0 12 -4 15 -8z m-419 -32 c3 -6 -1 -7 -9 -4 -18 7 -21 14 -7 14 6 0
13 -4 16 -10z m222 -12 c-3 -8 -6 -5 -6 6 -1 11 2 17 5 13 3 -3 4 -12 1 -19z
m210 16 c-3 -3 -12 -4 -19 -1 -8 3 -5 6 6 6 11 1 17 -2 13 -5z m-183 -28 c-3
-8 -1 -17 5 -21 6 -3 11 -11 11 -16 0 -6 -7 -3 -16 6 -14 13 -14 45 0 45 3 0
3 -6 0 -14z m-302 -9 c18 3 28 1 24 -5 -3 -5 -19 -12 -36 -14 -25 -4 -30 -1
-29 16 0 12 3 16 5 9 3 -6 18 -9 36 -6z m453 -17 c3 -5 1 -10 -4 -10 -6 0 -11
5 -11 10 0 6 2 10 4 10 3 0 8 -4 11 -10z m-1808 -57 c-3 -10 -5 -4 -5 12 0 17
2 24 5 18 2 -7 2 -21 0 -30z m771 7 c27 -1 27 -1 -5 -15 -18 -8 -33 -20 -32
-27 0 -10 2 -10 6 0 2 6 9 12 14 12 4 0 6 -6 3 -14 -3 -8 -1 -17 5 -21 6 -3
11 1 11 9 0 8 6 14 13 12 6 -3 24 -7 38 -10 17 -4 29 -14 33 -29 3 -13 13 -23
23 -23 10 -1 25 -3 33 -5 11 -3 14 3 12 20 l-2 25 23 -27 c16 -19 32 -27 55
-27 18 0 32 5 32 10 0 6 6 10 13 10 6 -1 1 -9 -12 -20 -12 -11 -28 -17 -34
-13 -6 3 -7 1 -3 -5 4 -7 -4 -14 -20 -18 -19 -5 -22 -9 -12 -15 9 -6 7 -9 -10
-9 -22 0 -22 1 -8 29 14 26 14 30 1 35 -10 3 -15 -1 -15 -12 -1 -20 -23 -52
-37 -52 -5 0 -17 6 -27 13 -16 12 -16 13 4 14 11 1 18 -2 15 -8 -4 -5 -2 -9 4
-9 15 0 23 18 11 25 -6 4 -8 10 -5 15 3 5 -13 9 -35 8 -22 0 -40 -5 -40 -10 0
-5 4 -7 8 -4 5 3 9 -1 9 -9 0 -10 -5 -11 -19 -4 -10 5 -18 14 -18 20 0 6 -4 8
-9 4 -14 -8 -88 24 -95 41 -3 8 -1 14 3 14 5 0 11 -7 15 -15 8 -22 31 -18 33
5 2 17 -10 24 -37 22 -8 -1 -11 48 -4 60 3 5 13 7 21 4 8 -3 27 -6 41 -6z
m1052 -10 c0 -5 -2 -10 -4 -10 -3 0 -8 5 -11 10 -3 6 -1 10 4 10 6 0 11 -4 11
-10z m-1005 -20 c13 -6 15 -9 5 -9 -8 0 -22 4 -30 9 -18 12 -2 12 25 0z m-395
-20 c-7 -14 -7 -20 0 -20 5 0 10 -4 10 -10 0 -5 -7 -10 -15 -10 -8 0 -15 6
-15 14 0 22 11 46 21 46 6 0 5 -9 -1 -20z m1350 0 c0 -5 -5 -12 -12 -16 -7 -4
-8 -3 -4 4 4 7 2 12 -3 12 -6 0 -11 4 -11 10 0 5 7 7 15 4 8 -4 15 -10 15 -14z
m-2231 -29 c21 -14 22 -16 7 -19 -9 -2 -32 3 -51 12 -18 9 -38 16 -44 16 -6 0
-11 5 -11 10 0 15 68 1 99 -19z m1755 13 c3 -8 2 -12 -4 -9 -6 3 -10 10 -10
16 0 14 7 11 14 -7z m-1007 -9 c0 -8 -4 -12 -9 -9 -5 3 -6 10 -3 15 9 13 12
11 12 -6z m593 -6 c0 -5 -4 -9 -10 -9 -5 0 -10 7 -10 16 0 8 5 12 10 9 6 -3
10 -10 10 -16z m205 -17 c-3 -3 -11 0 -18 7 -9 10 -8 11 6 5 10 -3 15 -9 12
-12z m-348 -44 c6 -5 9 -16 6 -24 -3 -8 0 -14 6 -14 6 0 11 5 11 11 0 8 5 8
15 -1 12 -10 15 -10 15 1 0 12 2 12 9 1 4 -8 11 -13 15 -13 17 1 48 -16 38
-23 -6 -3 -14 -1 -17 4 -5 8 -13 6 -25 -5 -10 -9 -21 -15 -26 -14 -20 3 -34
-2 -34 -12 0 -7 8 -9 23 -4 12 4 39 8 61 9 30 2 35 0 24 -8 -8 -6 -13 -17 -11
-23 3 -7 0 -13 -6 -13 -6 0 -11 6 -11 13 0 6 -8 2 -18 -10 -9 -12 -28 -22 -42
-23 -46 -4 -70 0 -70 11 0 5 5 7 12 3 7 -5 9 -2 5 9 -3 9 -2 17 4 19 9 3 22
48 13 48 -3 0 -9 -10 -14 -22 -8 -22 -9 -22 -9 -2 -1 11 5 26 11 32 10 10 10
15 -2 22 -8 5 -17 7 -19 4 -3 -3 1 -9 9 -14 11 -7 10 -9 -7 -8 -17 2 -21 9
-21 34 0 27 3 31 22 26 11 -3 26 -9 33 -14z m-680 -7 c0 -11 -5 -18 -9 -15 -4
3 -5 11 -1 19 7 21 12 19 10 -4z m213 15 c0 -3 -4 -8 -10 -11 -5 -3 -10 -1
-10 4 0 6 5 11 10 11 6 0 10 -2 10 -4z m808 -52 c-7 -14 -20 -24 -32 -25 -20
0 -20 -1 2 -10 16 -6 29 -5 40 2 15 9 15 10 -1 5 -10 -3 -16 -2 -13 3 3 5 18
11 33 14 16 3 40 8 54 11 18 4 34 0 50 -13 14 -10 36 -17 52 -15 25 2 27 0 21
-19 -6 -20 -5 -20 10 -7 16 12 17 12 14 -6 -2 -12 2 -18 10 -16 8 1 12 -3 9
-10 -2 -7 -11 -12 -19 -10 -9 1 -22 -5 -29 -14 -13 -16 -11 -17 26 -10 22 4
45 12 50 18 7 8 6 9 -2 4 -7 -4 -13 -2 -13 3 0 6 7 11 15 11 8 0 15 -4 15 -10
0 -5 3 -9 8 -9 21 4 42 -2 42 -12 0 -7 -10 -9 -25 -7 -14 3 -25 2 -25 -2 0 -4
-7 -11 -16 -14 -8 -3 -12 -2 -9 4 3 6 2 10 -4 10 -5 0 -15 -8 -20 -17 -6 -10
-11 -12 -11 -5 0 6 -7 12 -15 12 -18 0 -20 -36 -3 -46 8 -5 9 -1 4 12 -5 13 0
11 16 -8 25 -29 68 -47 68 -28 0 6 5 8 11 4 8 -5 8 -9 -1 -14 -9 -5 -9 -9 -1
-14 14 -9 27 22 14 35 -5 5 -21 10 -35 11 -22 2 -24 5 -14 20 6 10 16 18 23
18 6 0 17 2 25 3 7 2 9 2 4 -1 -4 -2 -2 -9 5 -14 10 -7 6 -8 -14 -5 -15 2 -30
0 -33 -4 -4 -8 42 -14 69 -10 4 0 7 -4 7 -10 0 -6 -7 -9 -15 -5 -12 4 -13 2
-6 -13 7 -12 6 -22 -1 -29 -9 -9 -8 -12 5 -12 9 0 17 -4 17 -9 0 -14 54 -20
70 -8 13 11 13 10 0 -7 -14 -18 -13 -19 3 -13 10 4 16 3 12 -3 -5 -9 53 -46
67 -42 3 1 9 -5 12 -13 7 -19 -8 -19 -24 0 -7 8 -21 15 -31 15 -9 0 -24 7 -33
15 -8 8 -20 15 -26 15 -19 0 -110 44 -110 53 0 5 -4 6 -10 2 -5 -3 -18 2 -28
12 -10 10 -25 19 -33 21 -8 2 -22 12 -31 22 -11 12 -25 16 -39 13 -18 -5 -20
-3 -14 16 4 15 2 21 -9 21 -10 0 -13 -6 -9 -16 5 -14 3 -13 -15 2 -25 21 -28
28 -8 21 8 -3 20 2 28 11 11 13 11 15 -2 7 -10 -5 -12 -5 -5 2 15 16 68 26 59
12 -4 -7 -2 -10 6 -7 8 2 16 11 18 19 3 8 1 11 -3 7 -4 -4 -14 0 -22 10 -9 12
-13 13 -11 3 2 -8 -6 -17 -17 -19 -16 -3 -18 -1 -7 9 17 19 15 25 -10 26 -16
2 -19 0 -9 -6 9 -6 5 -10 -15 -15 -15 -4 -24 -10 -18 -14 16 -12 13 -28 -8
-41 -16 -10 -18 -10 -12 0 5 9 2 11 -8 6 -19 -7 -48 22 -48 46 0 11 8 17 23
17 20 -1 21 -2 5 -14 -23 -17 -23 -22 4 -29 27 -7 45 2 27 14 -9 6 -10 9 -2 9
6 0 21 14 33 30 25 35 20 40 -9 9 -15 -16 -24 -19 -37 -11 -23 13 -83 -6 -62
-19 10 -7 10 -9 0 -9 -7 0 -15 6 -18 14 -4 9 -16 13 -35 11 -20 -3 -29 0 -29
10 0 8 6 15 13 16 6 0 3 5 -8 10 -16 7 -14 9 13 6 22 -3 32 1 32 10 0 8 5 11
10 8 6 -3 10 -2 10 4 0 11 -41 9 -75 -4 -19 -8 -19 -7 1 12 27 27 55 32 76 14
13 -11 14 -19 6 -37z m-828 5 c0 -6 -4 -7 -10 -4 -5 3 -10 11 -10 16 0 6 5 7
10 4 6 -3 10 -11 10 -16z m877 5 c2 -5 -6 -10 -17 -11 -20 -2 -26 8 -13 21 9
8 26 3 30 -10z m-1430 0 c-3 -3 -12 -4 -19 -1 -8 3 -5 6 6 6 11 1 17 -2 13 -5z
m1638 -22 c-3 -3 -11 0 -18 7 -9 10 -8 11 6 5 10 -3 15 -9 12 -12z m-355 -7
c10 -12 10 -15 -2 -15 -8 0 -15 7 -15 15 0 8 1 15 2 15 2 0 8 -7 15 -15z
m-770 -20 c-7 -8 -17 -15 -23 -15 -6 0 -2 7 9 15 25 19 30 19 14 0z m1475 5
c3 -6 -1 -7 -9 -4 -18 7 -21 14 -7 14 6 0 13 -4 16 -10z m-1528 -36 c-3 -3
-12 -4 -19 -1 -8 3 -5 6 6 6 11 1 17 -2 13 -5z m-137 -44 c5 -19 6 -29 1 -24
-10 10 -26 72 -17 63 4 -4 11 -21 16 -39z m988 5 c-10 -10 -49 -14 -43 -4 4 5
16 9 27 9 12 0 19 -2 16 -5z m-1193 -15 c-3 -5 -10 -10 -16 -10 -5 0 -9 5 -9
10 0 6 7 10 16 10 8 0 12 -4 9 -10z m1675 -15 c-13 -15 -9 -18 25 -17 16 1 16
0 3 -4 -11 -3 -15 -11 -11 -21 4 -10 2 -14 -6 -12 -7 3 -12 9 -11 14 1 5 -9
13 -21 17 l-23 9 24 14 c33 17 35 18 20 0z m-495 -5 c-3 -5 -10 -10 -16 -10
-5 0 -9 5 -9 10 0 6 7 10 16 10 8 0 12 -4 9 -10z m-1117 -7 c-10 -2 -26 -2
-35 0 -10 3 -2 5 17 5 19 0 27 -2 18 -5z m1658 -31 c-17 -16 -18 -16 -5 5 7
12 15 20 18 17 3 -2 -3 -12 -13 -22z m-23 -18 c26 1 47 -2 47 -6 0 -4 -30 -8
-66 -8 -59 0 -65 2 -54 15 8 9 16 12 19 6 3 -5 27 -8 54 -7z m106 0 c11 -10
-10 -15 -22 -6 -8 7 -17 9 -20 5 -4 -3 -7 -1 -7 6 0 11 35 7 49 -5z m-145 -31
c-5 -5 -11 -12 -15 -16 -3 -4 -11 -2 -17 5 -9 11 -5 14 15 16 15 1 22 -1 17
-5z m122 -18 c-9 -9 -21 -13 -27 -9 -7 4 -9 3 -5 -4 3 -6 1 -14 -6 -18 -7 -4
-10 -4 -6 1 4 4 3 16 -3 27 -9 16 -7 18 14 13 14 -4 28 -2 32 5 4 6 9 9 12 6
3 -3 -2 -12 -11 -21z m74 14 c-11 -8 -12 -12 -2 -16 6 -2 10 -9 7 -13 -3 -5
-1 -11 4 -14 10 -7 36 16 44 36 3 10 9 9 23 -3 10 -9 26 -19 34 -22 12 -4 11
-6 -4 -12 -13 -6 -23 -3 -31 8 -14 20 -26 22 -20 5 8 -22 -9 -36 -38 -31 -17
3 -27 12 -27 23 0 10 -6 21 -12 23 -10 4 -9 8 2 16 8 6 20 11 25 11 6 0 3 -5
-5 -11z m40 -3 c0 -3 -4 -8 -10 -11 -5 -3 -10 -1 -10 4 0 6 5 11 10 11 6 0 10
-2 10 -4z m-86 -28 c-5 -8 -2 -9 9 -5 13 5 17 1 17 -14 0 -11 -4 -17 -10 -14
-6 4 -19 1 -28 -7 -16 -12 -16 -11 -2 6 12 16 13 20 1 24 -11 4 -11 6 0 13 19
12 22 11 13 -3z m224 -37 c13 -18 13 -22 1 -19 -8 2 -13 -2 -12 -9 2 -7 -4
-10 -12 -7 -10 4 -14 17 -13 35 3 33 14 33 36 0z m-51 -3 c-3 -8 -6 -5 -6 6
-1 11 2 17 5 13 3 -3 4 -12 1 -19z m-22 0 c5 4 4 0 -1 -8 -5 -8 -9 -19 -9 -24
0 -5 -7 -11 -15 -13 -13 -4 -13 -3 0 6 11 8 12 11 2 11 -7 0 -10 5 -7 10 3 6
1 10 -4 10 -6 0 -11 5 -11 10 0 7 6 7 19 1 10 -6 22 -7 26 -3z m-85 -18 c0 -5
-2 -10 -4 -10 -3 0 -8 5 -11 10 -3 6 -1 10 4 10 6 0 11 -4 11 -10z m34 -26 c3
-8 2 -12 -4 -9 -6 3 -10 10 -10 16 0 14 7 11 14 -7z m76 2 c0 -3 -4 -8 -10
-11 -5 -3 -10 -1 -10 4 0 6 5 11 10 11 6 0 10 -2 10 -4z m-875 -26 c-3 -5 -13
-6 -21 -3 -12 4 -13 8 -3 14 15 9 32 2 24 -11z m831 -20 c-1 -16 -2 -30 -4
-30 -1 0 -19 9 -39 20 -36 19 -36 20 -11 20 15 0 30 5 33 10 12 19 22 10 21
-20z m51 5 c0 -11 -4 -12 -14 -4 -7 6 -13 13 -13 15 0 2 6 4 13 4 8 0 14 -7
14 -15z m-3 -45 c7 0 22 -9 34 -20 12 -12 22 -16 22 -10 0 5 4 10 8 10 5 0 9
-7 9 -15 0 -20 -7 -19 -61 11 -27 15 -43 30 -39 37 5 8 8 8 11 -1 2 -7 9 -12
16 -12z m-1137 -27 c32 -37 42 -66 24 -77 -15 -10 -122 16 -118 28 2 6 0 20
-6 30 -7 15 -4 23 14 37 34 27 48 24 86 -18z m1230 31 c-3 -3 -12 -4 -19 -1
-8 3 -5 6 6 6 11 1 17 -2 13 -5z m-267 -29 c-11 -13 -10 -14 2 -10 9 4 18 -1
22 -10 5 -13 1 -15 -17 -9 -39 12 -50 44 -16 44 18 0 19 -2 9 -15z"/>
<path d="M2540 2120 c0 -5 5 -10 11 -10 5 0 7 5 4 10 -3 6 -8 10 -11 10 -2 0
-4 -4 -4 -10z"/>
<path d="M2796 855 c-9 -26 -7 -32 5 -12 6 10 9 21 6 23 -2 3 -7 -2 -11 -11z"/>
<path d="M2849 794 c-9 -11 -9 -18 -1 -26 15 -15 52 -21 52 -8 0 7 7 7 20 0
19 -10 19 -9 8 16 -7 14 -14 21 -16 15 -2 -6 -8 -11 -13 -11 -4 0 -6 6 -3 13
7 18 -32 19 -47 1z"/>
<path d="M2844 606 c11 -9 24 -16 30 -16 12 0 7 5 -24 19 -24 11 -24 11 -6 -3z"/>
<path d="M3226 665 c-3 -9 0 -15 9 -15 9 0 12 6 9 15 -4 8 -7 15 -9 15 -2 0
-5 -7 -9 -15z"/>
<path d="M3324 559 c14 -9 16 -13 5 -20 -7 -4 -11 -10 -8 -13 2 -3 11 -1 18 4
18 11 6 40 -16 40 -17 -1 -17 -1 1 -11z"/>
<path d="M1100 2901 c0 -6 4 -13 10 -16 6 -3 7 1 4 9 -7 18 -14 21 -14 7z"/>
<path d="M1525 2841 c-3 -5 4 -13 16 -16 28 -9 36 1 10 14 -12 7 -22 7 -26 2z"/>
<path d="M1513 2792 c0 -22 3 -30 10 -23 7 7 7 18 0 33 -10 22 -11 21 -10 -10z"/>
<path d="M1625 2810 c-3 -5 -1 -10 5 -10 6 0 8 -4 5 -10 -3 -5 0 -7 8 -4 8 3
18 1 22 -5 3 -6 -1 -11 -9 -11 -11 0 -16 -9 -16 -27 0 -19 -3 -24 -9 -15 -6
11 -14 10 -40 -6 -42 -26 -22 -33 47 -17 47 11 53 11 47 -3 -4 -12 -3 -13 10
-2 10 8 15 9 15 1 0 -6 -12 -13 -27 -16 -16 -3 -41 -10 -58 -14 -26 -8 -22 -9
28 -10 61 -1 102 13 91 30 -3 6 15 -6 41 -25 46 -35 85 -60 85 -54 0 2 -25 21
-55 43 -52 38 -55 42 -50 73 8 42 -1 69 -27 83 -16 9 -19 8 -13 -2 6 -9 3 -11
-8 -6 -12 4 -17 1 -17 -9 0 -11 -6 -14 -16 -10 -9 3 -19 6 -22 7 -4 0 2 5 13
10 16 8 15 8 -8 4 -19 -4 -26 -2 -22 5 3 5 2 10 -4 10 -5 0 -13 -4 -16 -10z
m132 -36 c-3 -3 -12 -4 -19 -1 -8 3 -5 6 6 6 11 1 17 -2 13 -5z m-56 -17 c-6
-8 -8 -17 -4 -20 3 -4 1 -7 -5 -7 -7 0 -12 9 -12 20 0 12 7 20 16 20 13 0 14
-3 5 -13z"/>
<path d="M2782 2571 c-11 -7 -11 -9 2 -14 9 -4 16 -2 16 3 0 14 30 12 65 -5
28 -14 26 -14 -50 -12 l-79 2 -15 -38 c-20 -53 -4 -68 45 -42 20 11 33 24 30
32 -7 16 16 17 32 1 10 -10 -1 -19 -54 -44 -58 -27 -63 -31 -38 -32 16 -1 47
-3 69 -4 38 -3 41 -1 67 47 37 67 36 83 -7 101 -39 16 -64 18 -83 5z m-7 -71
c-3 -5 -14 -10 -23 -9 -14 0 -13 2 3 9 27 11 27 11 20 0z"/>
<path d="M1848 2563 c6 -2 18 -2 25 0 6 3 1 5 -13 5 -14 0 -19 -2 -12 -5z"/>
<path d="M356 1364 c-20 -29 -18 -55 4 -61 13 -4 13 -3 0 6 -13 9 -12 11 5 12
11 1 23 1 26 1 4 -1 9 7 12 18 3 11 0 18 -5 17 -6 -1 -13 4 -16 12 -3 9 0 11
8 6 9 -5 11 -4 6 3 -11 18 -22 14 -40 -14z m24 -24 c-8 -5 -19 -10 -25 -10 -5
0 -3 5 5 10 8 5 20 10 25 10 6 0 3 -5 -5 -10z"/>
<path d="M1425 720 c-7 -12 22 -12 50 0 17 7 15 9 -12 9 -17 1 -35 -3 -38 -9z"/>
<path d="M3145 460 c-8 -13 3 -30 18 -30 8 0 7 3 -2 9 -7 5 -10 14 -7 20 4 6
5 11 2 11 -3 0 -8 -4 -11 -10z"/>
<path d="M3170 466 c0 -2 7 -7 16 -10 8 -3 12 -2 9 4 -6 10 -25 14 -25 6z"/>
<path d="M3300 450 c0 -5 5 -10 11 -10 5 0 7 5 4 10 -3 6 -8 10 -11 10 -2 0
-4 -4 -4 -10z"/>
<path d="M3244 438 c9 -5 23 -5 32 0 12 6 7 9 -16 9 -23 0 -28 -3 -16 -9z"/>
<path d="M3355 420 c3 -5 11 -10 16 -10 6 0 7 5 4 10 -3 6 -11 10 -16 10 -6 0
-7 -4 -4 -10z"/>
<path d="M3380 390 c13 -9 7 -14 -12 -11 -4 0 -2 -10 4 -24 6 -14 18 -25 26
-25 12 0 12 -3 2 -15 -7 -8 -19 -15 -27 -15 -8 0 -11 -5 -8 -11 5 -7 13 -5 24
5 10 9 21 13 26 9 4 -5 5 -2 0 6 -5 9 -3 12 6 9 8 -3 13 -11 11 -18 -4 -16 21
-7 26 10 3 7 0 10 -6 6 -6 -3 -14 -1 -17 4 -4 6 -18 15 -31 20 -13 5 -24 15
-24 21 0 8 4 8 14 0 12 -10 13 -8 8 11 -5 20 -4 21 11 9 9 -7 14 -17 11 -22
-3 -5 -1 -9 4 -9 6 0 9 11 8 25 -1 22 -6 25 -36 25 -26 0 -31 -3 -20 -10z"/>
<path d="M3470 376 c0 -9 7 -16 16 -16 17 0 14 22 -4 28 -7 2 -12 -3 -12 -12z"/>
<path d="M3244 371 c4 -6 16 -16 28 -22 15 -8 18 -8 14 0 -4 6 -16 16 -28 22
-15 8 -18 8 -14 0z"/>
<path d="M3000 360 c0 -5 5 -10 11 -10 5 0 7 5 4 10 -3 6 -8 10 -11 10 -2 0
-4 -4 -4 -10z"/>
<path d="M3165 360 c-3 -5 1 -10 9 -10 9 0 16 5 16 10 0 6 -4 10 -9 10 -6 0
-13 -4 -16 -10z"/>
<path d="M3083 339 c-2 -23 3 -25 10 -4 4 8 3 16 -1 19 -4 3 -9 -4 -9 -15z"/>
<path d="M3215 350 c-3 -6 1 -7 9 -4 18 7 21 14 7 14 -6 0 -13 -4 -16 -10z"/>
<path d="M3315 353 c11 -3 25 -13 33 -22 11 -14 12 -13 2 7 -7 14 -19 22 -33
21 -20 -1 -20 -2 -2 -6z"/>
<path d="M3150 325 c0 -8 -4 -15 -8 -15 -5 0 -9 -7 -9 -15 0 -10 4 -12 13 -5
15 13 25 50 13 50 -5 0 -9 -7 -9 -15z"/>
<path d="M3245 320 c22 -24 21 -24 29 -4 3 8 2 12 -3 9 -5 -3 -12 -1 -16 5 -3
5 -11 10 -17 10 -6 0 -3 -9 7 -20z"/>
<path d="M3282 301 c-10 -28 -7 -41 8 -41 4 0 6 11 5 25 -4 28 2 30 28 11 11
-9 14 -16 7 -19 -6 -3 -6 -5 2 -3 16 3 23 26 7 26 -7 0 -20 7 -30 16 -15 14
-18 13 -27 -15z"/>
<path d="M3977 314 c-8 -8 1 -24 14 -24 5 0 9 7 9 15 0 15 -12 20 -23 9z"/>
<path d="M3075 301 c-3 -5 -2 -12 3 -15 5 -3 9 1 9 9 0 17 -3 19 -12 6z"/>
<path d="M3171 297 c-11 -14 -6 -27 10 -27 5 0 6 7 2 16 -4 12 0 14 23 9 22
-5 25 -4 14 4 -20 14 -35 14 -49 -2z"/>
<path d="M3107 293 c-4 -3 -7 -11 -7 -17 0 -6 5 -5 12 2 6 6 9 14 7 17 -3 3
-9 2 -12 -2z"/>
<path d="M3585 280 c3 -5 8 -10 11 -10 2 0 4 5 4 10 0 6 -5 10 -11 10 -5 0 -7
-4 -4 -10z"/>
<path d="M3613 265 c0 -7 6 -11 14 -8 7 3 13 6 13 8 0 2 -6 5 -13 8 -8 3 -14
-1 -14 -8z"/>
<path d="M3080 260 c8 -5 22 -9 30 -9 10 0 8 3 -5 9 -27 12 -43 12 -25 0z"/>
<path d="M3135 260 c-4 -6 -1 -9 7 -8 7 2 12 -3 11 -9 -4 -19 14 -15 21 4 4
10 4 14 0 10 -4 -4 -13 -2 -20 4 -8 7 -14 7 -19 -1z"/>
<path d="M3368 258 c5 -5 16 -8 23 -6 8 3 3 7 -10 11 -17 4 -21 3 -13 -5z"/>
<path d="M3050 230 c-6 -11 -7 -20 -2 -20 6 0 12 9 15 20 3 11 3 20 1 20 -2 0
-8 -9 -14 -20z"/>
<path d="M3235 240 c-4 -6 -11 -8 -16 -5 -5 4 -9 1 -9 -4 0 -6 9 -11 21 -11
11 0 18 -4 15 -8 -3 -5 1 -9 9 -9 8 0 12 4 8 9 -3 6 4 8 15 6 12 -2 21 2 22 7
0 6 -4 10 -9 10 -5 0 -13 3 -17 8 -11 10 -32 9 -39 -3z"/>
<path d="M3320 242 c0 -5 7 -9 15 -9 8 0 15 4 15 9 0 4 -7 8 -15 8 -8 0 -15
-4 -15 -8z"/>
<path d="M3530 240 c0 -5 5 -10 11 -10 5 0 7 5 4 10 -3 6 -8 10 -11 10 -2 0
-4 -4 -4 -10z"/>
<path d="M3096 225 c4 -8 11 -15 16 -15 6 0 5 6 -2 15 -7 8 -14 15 -16 15 -2
0 -1 -7 2 -15z"/>
<path d="M3584 233 c3 -4 -4 -13 -16 -20 -21 -12 -21 -13 -3 -11 29 4 50 38
23 38 -6 0 -8 -3 -4 -7z"/>
<path d="M3478 223 c7 -3 16 -2 19 1 4 3 -2 6 -13 5 -11 0 -14 -3 -6 -6z"/>
<path d="M3130 211 c0 -6 4 -13 10 -16 6 -3 7 1 4 9 -7 18 -14 21 -14 7z"/>
<path d="M3355 209 c4 -5 -2 -13 -12 -17 -10 -4 -19 -12 -20 -19 -2 -6 13 -2
32 10 40 26 43 32 15 34 -11 1 -18 -2 -15 -8z"/>
<path d="M3526 205 c-3 -8 -1 -15 4 -15 6 0 10 7 10 15 0 8 -2 15 -4 15 -2 0
-6 -7 -10 -15z"/>
<path d="M3611 215 c0 -5 4 -17 9 -25 7 -12 12 -12 22 -2 9 9 9 15 -1 25 -11
10 -13 10 -7 0 4 -7 3 -13 -3 -13 -5 0 -12 6 -14 13 -3 6 -6 8 -6 2z"/>
<path d="M665 180 c-3 -5 -1 -10 4 -10 6 0 11 5 11 10 0 6 -2 10 -4 10 -3 0
-8 -4 -11 -10z"/>
<path d="M3139 177 c-14 -7 -24 -18 -22 -24 6 -16 33 -17 33 -2 0 5 -5 7 -12
3 -6 -4 -8 -3 -5 4 4 5 17 8 30 6 12 -2 16 -2 9 2 -6 3 -10 10 -6 15 6 11 6
11 -27 -4z"/>
<path d="M3186 178 c3 -4 9 -8 15 -8 5 0 9 4 9 8 0 5 -7 9 -15 9 -8 0 -12 -4
-9 -9z"/>
<path d="M3261 174 c0 -11 3 -14 6 -6 3 7 2 16 -1 19 -3 4 -6 -2 -5 -13z"/>
<path d="M3387 179 c7 -7 15 -10 18 -7 3 3 -2 9 -12 12 -14 6 -15 5 -6 -5z"/>
<path d="M3813 183 c-7 -3 -13 -9 -13 -14 0 -4 6 -6 14 -3 13 5 14 1 7 -35 -1
-2 -7 2 -15 8 -12 10 -13 8 -9 -8 3 -12 10 -18 15 -15 6 4 15 0 20 -7 7 -10 8
-8 3 7 -4 15 1 24 17 33 13 6 15 9 6 7 -11 -3 -18 0 -18 9 0 17 -11 24 -27 18z"/>
<path d="M930 170 c0 -5 5 -10 11 -10 5 0 7 5 4 10 -3 6 -8 10 -11 10 -2 0 -4
-4 -4 -10z"/>
<path d="M3444 168 c-3 -4 2 -8 10 -8 8 0 17 4 20 8 3 5 -2 9 -10 9 -8 0 -17
-4 -20 -9z"/>
<path d="M3501 164 c0 -11 3 -14 6 -6 3 7 2 16 -1 19 -3 4 -6 -2 -5 -13z"/>
<path d="M3575 170 c3 -5 11 -10 16 -10 6 0 7 5 4 10 -3 6 -11 10 -16 10 -6 0
-7 -4 -4 -10z"/>
<path d="M3618 163 c7 -3 16 -2 19 1 4 3 -2 6 -13 5 -11 0 -14 -3 -6 -6z"/>
<path d="M3216 146 c3 -9 1 -16 -6 -16 -6 0 -8 -5 -4 -12 6 -10 5 -10 -8 -1
-15 13 -32 7 -22 -8 10 -17 42 -9 47 12 3 12 10 18 16 15 5 -4 12 -2 16 4 3 5
2 10 -4 10 -5 0 -17 3 -25 6 -12 5 -15 2 -10 -10z"/>
<path d="M3335 142 c-11 -25 -13 -52 -3 -46 4 3 8 14 8 24 0 10 5 20 12 22 8
3 9 6 1 11 -6 4 -14 -1 -18 -11z"/>
<path d="M3408 153 c7 -3 16 -2 19 1 4 3 -2 6 -13 5 -11 0 -14 -3 -6 -6z"/>
<path d="M3456 151 c-13 -5 -16 -10 -9 -14 7 -4 14 -3 18 3 4 6 11 8 16 4 6
-4 3 -14 -7 -25 -18 -20 -13 -23 23 -13 22 6 22 7 5 30 -19 26 -19 26 -46 15z"/>
<path d="M3544 144 c-18 -15 -18 -15 2 -5 12 6 25 7 29 3 5 -4 5 -1 1 6 -9 15
-8 15 -32 -4z"/>
<path d="M3718 143 c-13 -16 -32 -17 -22 -1 5 7 3 8 -6 3 -10 -6 -9 -11 4 -21
10 -7 15 -17 12 -22 -8 -13 22 -27 62 -31 7 0 10 -6 6 -12 -5 -9 1 -10 20 -5
16 4 26 2 26 -4 0 -6 5 -8 12 -4 7 4 8 3 4 -5 -6 -9 -11 -9 -22 0 -9 7 -14 8
-14 1 0 -17 56 -32 70 -19 10 9 14 9 17 0 6 -17 33 -4 33 16 0 14 -2 14 -10 1
-7 -11 -10 -11 -10 -2 0 10 -5 10 -21 2 -17 -9 -23 -8 -35 7 -7 10 -11 24 -9
30 2 7 1 12 -3 11 -4 -1 -17 3 -29 10 -16 9 -24 9 -29 0 -4 -7 -3 -8 4 -4 7 4
12 2 12 -4 0 -6 4 -9 9 -5 5 3 13 0 17 -6 5 -9 -1 -10 -22 -4 -16 4 -38 9 -49
10 -11 1 -21 9 -23 18 -2 11 3 14 20 11 l23 -5 -22 10 c-31 14 -29 19 5 17 16
-1 29 3 29 9 0 14 -47 13 -59 -2z"/>
<path d="M3153 134 c-3 -8 -12 -13 -19 -10 -8 3 -14 -1 -14 -10 0 -13 3 -13
28 0 53 29 59 36 34 36 -12 0 -25 -7 -29 -16z"/>
<path d="M3286 135 c-3 -8 -1 -17 3 -20 5 -3 11 2 15 10 3 8 1 17 -3 20 -5 3
-11 -2 -15 -10z"/>
<path d="M3610 133 c0 -18 18 -35 24 -24 5 7 17 1 34 -17 24 -24 25 -29 12
-40 -13 -11 -12 -12 6 -3 12 6 25 7 29 3 5 -4 4 0 0 8 -10 16 -65 65 -74 65
-3 0 -12 4 -18 8 -7 5 -13 5 -13 0z"/>
<path d="M3245 114 c-9 -9 -14 -25 -12 -35 4 -14 0 -19 -14 -19 -12 0 -16 5
-13 15 5 11 2 13 -10 9 -9 -3 -14 -10 -11 -14 3 -5 -5 -16 -17 -26 -22 -16
-17 -16 30 3 15 6 15 5 3 -11 -11 -13 -5 -12 22 6 28 18 36 28 32 45 -3 12 0
23 8 26 6 2 9 7 6 11 -4 4 -14 -1 -24 -10z"/>
<path d="M3366 118 c4 -6 -1 -17 -11 -25 -14 -9 -15 -13 -4 -13 8 0 20 9 26
19 10 16 9 20 -3 25 -10 4 -12 2 -8 -6z"/>
<path d="M3562 106 c7 -8 15 -12 17 -11 5 6 -10 25 -20 25 -5 0 -4 -6 3 -14z"/>
<path d="M18 103 c7 -3 16 -2 19 1 4 3 -2 6 -13 5 -11 0 -14 -3 -6 -6z"/>
<path d="M3070 106 c0 -2 8 -10 18 -17 15 -13 16 -12 3 4 -13 16 -21 21 -21
13z"/>
<path d="M3900 81 c0 -6 4 -12 8 -15 5 -3 9 1 9 9 0 8 -4 15 -9 15 -4 0 -8 -4
-8 -9z"/>
<path d="M3120 76 c0 -3 9 -10 20 -16 11 -6 20 -8 20 -6 0 3 -9 10 -20 16 -11
6 -20 8 -20 6z"/>
<path d="M3280 70 c-9 -6 -10 -10 -3 -10 6 0 15 5 18 10 8 12 4 12 -15 0z"/>
<path d="M3375 69 c-4 -6 -5 -12 -2 -15 2 -3 7 2 10 11 7 17 1 20 -8 4z"/>
<path d="M3420 65 c0 -9 -10 -20 -22 -25 -15 -6 -17 -9 -7 -9 9 -1 23 7 32 17
19 21 22 32 7 32 -5 0 -10 -7 -10 -15z"/>
<path d="M3480 76 c0 -2 7 -9 15 -16 9 -7 15 -8 15 -2 0 5 -7 12 -15 16 -8 3
-15 4 -15 2z"/>
<path d="M3336 61 c-19 -7 -19 -8 0 -13 13 -3 21 0 21 8 0 8 -1 14 -1 13 -1 0
-10 -4 -20 -8z"/>
<path d="M3461 59 c-1 -19 26 -45 36 -35 3 3 1 6 -6 6 -7 0 -9 5 -5 12 4 6 3
8 -4 4 -6 -3 -13 2 -15 11 -4 15 -5 15 -6 2z"/>
<path d="M3580 59 c0 -5 11 -9 25 -9 14 0 25 4 25 9 0 5 -11 9 -25 9 -14 0
-25 -4 -25 -9z"/>
<path d="M3075 50 c-4 -6 -11 -7 -17 -4 -7 4 -8 2 -4 -5 6 -9 11 -9 22 0 14
11 18 19 10 19 -3 0 -8 -5 -11 -10z"/>
<path d="M3957 52 c5 -4 12 -13 14 -20 3 -8 7 -7 15 5 9 15 7 18 -14 20 -14 0
-21 -2 -15 -5z"/>
<path d="M3258 43 c6 -2 18 -2 25 0 6 3 1 5 -13 5 -14 0 -19 -2 -12 -5z"/>
<path d="M3225 30 c3 -5 8 -10 11 -10 2 0 4 5 4 10 0 6 -5 10 -11 10 -5 0 -7
-4 -4 -10z"/>
<path d="M3594 32 c3 -5 0 -13 -6 -15 -9 -4 -10 -6 -1 -6 17 -1 25 16 12 25
-7 4 -9 3 -5 -4z"/>
<path d="M3683 20 c2 -8 12 -16 23 -17 13 -2 15 -1 4 4 -8 3 -19 11 -23 17 -6
7 -7 6 -4 -4z"/>
<path d="M3980 10 c-9 -6 -10 -10 -3 -10 6 0 15 5 18 10 8 12 4 12 -15 0z"/>
</g>
</svg>
